<svg xmlns="http://www.w3.org/2000/svg" version="1.1" enable-background="new 0 0 576 592" xml:space="preserve" viewBox="249.04 256.58 77.93 78.85">

 <g>
  <title>Layer 1</title>
  <path transform="rotate(90 288 296)" id="svg_4" fill="#000000" d="m278.74362,333.89441c-16.90683,-5.17856 -26.8372,-16.12894 -29.72629,-33.20563c-3.57559,-21.13425 15.12708,-43.03006 36.54385,-43.62714c17.43875,-0.48618 30.79556,6.13483 38.04465,21.97775c11.05902,24.16937 -2.79169,51.78763 -30.1311,55.59912c-4.87039,0.67902 -9.58807,0.22705 -14.73111,-0.74411m-17.16446,-20.6564c12.47641,10.50974 40.16913,8.1087 52.78821,-3.99948c11.84235,-11.36285 8.83972,-27.95398 -6.16754,-34.42502c-16.33466,-7.04343 -34.86804,-0.62332 -45.86346,9.36484c-8.63237,7.84152 -8.78941,20.36996 -0.7572,29.05966l0,0z"/>
 </g>
</svg>
